<svg width="21" height="18" viewBox="0 0 21 18" fill="none" xmlns="http://www.w3.org/2000/svg">
<g clip-path="url(#clip0)">
<path d="M17.645 11.2796V3.375C17.645 2.59964 16.9505 1.96875 16.0971 1.96875H15.478V1.40625C15.478 0.940978 15.0614 0.5625 14.5493 0.5625C14.0371 0.5625 13.6205 0.940978 13.6205 1.40625V1.96875H12.0727V1.40625C12.0727 0.940978 11.6561 0.5625 11.144 0.5625C10.6319 0.5625 10.2153 0.940978 10.2153 1.40625V1.96875H8.35785V1.40625C8.35785 0.940978 7.94126 0.5625 7.42914 0.5625C6.91702 0.5625 6.50043 0.940978 6.50043 1.40625V1.96875H4.95258V1.40625C4.95258 0.940978 4.53599 0.5625 4.02386 0.5625C3.51174 0.5625 3.09515 0.940978 3.09515 1.40625V1.96875H2.47601C1.62258 1.96875 0.928162 2.59964 0.928162 3.375V14.625C0.928162 15.4004 1.62258 16.0312 2.47601 16.0312H12.8848C13.5283 17.0384 14.7256 17.7188 16.0971 17.7188C18.1456 17.7188 19.812 16.2048 19.812 14.3438C19.812 12.9849 18.9217 11.8142 17.645 11.2796ZM14.2397 1.40625C14.2397 1.25107 14.3784 1.125 14.5493 1.125C14.7201 1.125 14.8588 1.25107 14.8588 1.40625V3.09375C14.8588 3.24893 14.7201 3.375 14.5493 3.375C14.3784 3.375 14.2397 3.24893 14.2397 3.09375V1.40625ZM10.8344 1.40625C10.8344 1.25107 10.9732 1.125 11.144 1.125C11.3148 1.125 11.4536 1.25107 11.4536 1.40625V3.09375C11.4536 3.24893 11.3148 3.375 11.144 3.375C10.9732 3.375 10.8344 3.24893 10.8344 3.09375V1.40625ZM7.11957 1.40625C7.11957 1.25107 7.25833 1.125 7.42914 1.125C7.59995 1.125 7.73871 1.25107 7.73871 1.40625V3.09375C7.73871 3.24893 7.59995 3.375 7.42914 3.375C7.25833 3.375 7.11957 3.24893 7.11957 3.09375V1.40625ZM3.71429 1.40625C3.71429 1.25107 3.85306 1.125 4.02386 1.125C4.19467 1.125 4.33344 1.25107 4.33344 1.40625V3.09375C4.33344 3.24893 4.19467 3.375 4.02386 3.375C3.85306 3.375 3.71429 3.24893 3.71429 3.09375V1.40625ZM2.47601 2.53125H3.09515V3.09375C3.09515 3.55902 3.51174 3.9375 4.02386 3.9375C4.53599 3.9375 4.95258 3.55902 4.95258 3.09375V2.53125H6.50043V3.09375C6.50043 3.55902 6.91702 3.9375 7.42914 3.9375C7.94126 3.9375 8.35785 3.55902 8.35785 3.09375V2.53125H10.2153V3.09375C10.2153 3.55902 10.6319 3.9375 11.144 3.9375C11.6561 3.9375 12.0727 3.55902 12.0727 3.09375V2.53125H13.6205V3.09375C13.6205 3.55902 14.0371 3.9375 14.5493 3.9375C15.0614 3.9375 15.478 3.55902 15.478 3.09375V2.53125H16.0971C16.6092 2.53125 17.0258 2.90973 17.0258 3.375V4.78125H1.5473V3.375C1.5473 2.90973 1.96389 2.53125 2.47601 2.53125ZM2.47601 15.4688C1.96389 15.4688 1.5473 15.0903 1.5473 14.625V5.34375H17.0258V11.0798C16.7284 11.0099 16.4183 10.9688 16.0971 10.9688C15.8857 10.9688 15.6798 10.9886 15.478 11.0195V9.5625C15.478 9.40704 15.3395 9.28125 15.1684 9.28125H13.311C13.1399 9.28125 13.0014 9.40704 13.0014 9.5625V11.25C13.0014 11.4055 13.1399 11.5312 13.311 11.5312H14.048C13.0453 12.1362 12.3823 13.1705 12.3823 14.3438C12.3823 14.7387 12.4612 15.1162 12.599 15.4688H2.47601ZM14.8588 10.9688H13.6205V9.84375H14.8588V10.9688ZM16.0971 17.1562C14.3902 17.1562 13.0014 15.8945 13.0014 14.3438C13.0014 12.793 14.3902 11.5312 16.0971 11.5312C17.804 11.5312 19.1928 12.793 19.1928 14.3438C19.1928 15.8945 17.804 17.1562 16.0971 17.1562Z" fill="#7F8C8D"/>
<path d="M16.4067 13.8593V12.0938H15.7875V13.8593C15.6033 13.9567 15.478 14.1361 15.478 14.3438C15.478 14.3722 15.4827 14.3995 15.4872 14.4269L14.3558 15.249L14.7427 15.6885L15.8732 14.8669C15.9428 14.8915 16.0179 14.9062 16.0971 14.9062C16.439 14.9062 16.7162 14.6544 16.7162 14.3438C16.7162 14.1361 16.591 13.9567 16.4067 13.8593Z" fill="#7F8C8D"/>
<path d="M4.95258 6.1875H3.09515C2.92404 6.1875 2.78558 6.31329 2.78558 6.46875V8.15625C2.78558 8.31171 2.92404 8.4375 3.09515 8.4375H4.95258C5.12368 8.4375 5.26215 8.31171 5.26215 8.15625V6.46875C5.26215 6.31329 5.12368 6.1875 4.95258 6.1875ZM4.64301 7.875H3.40472V6.75H4.64301V7.875Z" fill="#7F8C8D"/>
<path d="M8.35785 6.1875H6.50043C6.32932 6.1875 6.19086 6.31329 6.19086 6.46875V8.15625C6.19086 8.31171 6.32932 8.4375 6.50043 8.4375H8.35785C8.52896 8.4375 8.66742 8.31171 8.66742 8.15625V6.46875C8.66742 6.31329 8.52896 6.1875 8.35785 6.1875ZM8.04828 7.875H6.81V6.75H8.04828V7.875Z" fill="#7F8C8D"/>
<path d="M11.7631 6.1875H9.9057C9.73459 6.1875 9.59613 6.31329 9.59613 6.46875V8.15625C9.59613 8.31171 9.73459 8.4375 9.9057 8.4375H11.7631C11.9342 8.4375 12.0727 8.31171 12.0727 8.15625V6.46875C12.0727 6.31329 11.9342 6.1875 11.7631 6.1875ZM11.4536 7.875H10.2153V6.75H11.4536V7.875Z" fill="#7F8C8D"/>
<path d="M13.311 8.4375H15.1684C15.3395 8.4375 15.478 8.31171 15.478 8.15625V6.46875C15.478 6.31329 15.3395 6.1875 15.1684 6.1875H13.311C13.1399 6.1875 13.0014 6.31329 13.0014 6.46875V8.15625C13.0014 8.31171 13.1399 8.4375 13.311 8.4375ZM13.6205 6.75H14.8588V7.875H13.6205V6.75Z" fill="#7F8C8D"/>
<path d="M4.95258 9.28125H3.09515C2.92404 9.28125 2.78558 9.40704 2.78558 9.5625V11.25C2.78558 11.4055 2.92404 11.5312 3.09515 11.5312H4.95258C5.12368 11.5312 5.26215 11.4055 5.26215 11.25V9.5625C5.26215 9.40704 5.12368 9.28125 4.95258 9.28125ZM4.64301 10.9688H3.40472V9.84375H4.64301V10.9688Z" fill="#7F8C8D"/>
<path d="M8.35785 9.28125H6.50043C6.32932 9.28125 6.19086 9.40704 6.19086 9.5625V11.25C6.19086 11.4055 6.32932 11.5312 6.50043 11.5312H8.35785C8.52896 11.5312 8.66742 11.4055 8.66742 11.25V9.5625C8.66742 9.40704 8.52896 9.28125 8.35785 9.28125ZM8.04828 10.9688H6.81V9.84375H8.04828V10.9688Z" fill="#7F8C8D"/>
<path d="M11.7631 9.28125H9.9057C9.73459 9.28125 9.59613 9.40704 9.59613 9.5625V11.25C9.59613 11.4055 9.73459 11.5312 9.9057 11.5312H11.7631C11.9342 11.5312 12.0727 11.4055 12.0727 11.25V9.5625C12.0727 9.40704 11.9342 9.28125 11.7631 9.28125ZM11.4536 10.9688H10.2153V9.84375H11.4536V10.9688Z" fill="#7F8C8D"/>
<path d="M4.95258 12.375H3.09515C2.92404 12.375 2.78558 12.5008 2.78558 12.6562V14.3438C2.78558 14.4992 2.92404 14.625 3.09515 14.625H4.95258C5.12368 14.625 5.26215 14.4992 5.26215 14.3438V12.6562C5.26215 12.5008 5.12368 12.375 4.95258 12.375ZM4.64301 14.0625H3.40472V12.9375H4.64301V14.0625Z" fill="#7F8C8D"/>
<path d="M8.35785 12.375H6.50043C6.32932 12.375 6.19086 12.5008 6.19086 12.6562V14.3438C6.19086 14.4992 6.32932 14.625 6.50043 14.625H8.35785C8.52896 14.625 8.66742 14.4992 8.66742 14.3438V12.6562C8.66742 12.5008 8.52896 12.375 8.35785 12.375ZM8.04828 14.0625H6.81V12.9375H8.04828V14.0625Z" fill="#7F8C8D"/>
<path d="M11.7631 12.375H9.9057C9.73459 12.375 9.59613 12.5008 9.59613 12.6562V14.3438C9.59613 14.4992 9.73459 14.625 9.9057 14.625H11.7631C11.9342 14.625 12.0727 14.4992 12.0727 14.3438V12.6562C12.0727 12.5008 11.9342 12.375 11.7631 12.375ZM11.4536 14.0625H10.2153V12.9375H11.4536V14.0625Z" fill="#7F8C8D"/>
</g>
<defs>
<clipPath id="clip0">
<rect width="19.8125" height="18" fill="white" transform="translate(0.309021)"/>
</clipPath>
</defs>
</svg>
