<svg width="15" height="15" viewBox="0 0 15 15" fill="none" xmlns="http://www.w3.org/2000/svg">
<g clip-path="url(#clip0)">
<path d="M14.7235 5.33967C14.552 5.14727 14.3178 5.02212 14.0625 4.98659V4.98606L10.076 4.43537L8.49844 0.665806C8.26808 0.114047 7.63406 -0.1465 7.08233 0.0838523C6.8193 0.193677 6.61017 0.402779 6.50038 0.665806L4.92281 4.43537L0.936302 4.98606C0.342359 5.06873 -0.0721116 5.61729 0.0105628 6.21124C0.0460933 6.46648 0.171235 6.70075 0.36364 6.87219L3.36719 9.55057L2.75005 13.7535C2.6832 14.1802 2.87921 14.6054 3.24717 14.8318C3.60994 15.0638 4.07658 15.0551 4.43047 14.8098L7.49937 12.7228L10.5683 14.8119C11.0635 15.148 11.7374 15.0191 12.0735 14.5239C12.2263 14.2988 12.2888 14.0246 12.2487 13.7556L11.6316 9.55107L14.6352 6.87269C15.0829 6.47376 15.1224 5.78738 14.7235 5.33967ZM10.7027 8.94577C10.5684 9.06582 10.5034 9.24536 10.5297 9.42361L11.1725 13.9233L7.80204 11.6317C7.62034 11.5082 7.38164 11.5082 7.19994 11.6317L3.80963 13.9094L4.46905 9.42148C4.49466 9.24395 4.42969 9.06539 4.29601 8.9458L1.08194 6.04884L5.37165 5.4569C5.55948 5.43101 5.71958 5.30775 5.79269 5.13283L7.50578 1.07133C7.50772 1.07372 7.50917 1.07645 7.51008 1.07937L9.2055 5.13069C9.2786 5.30562 9.43874 5.42887 9.62653 5.45477L13.9216 6.07294L10.7027 8.94577Z" fill="#333333"/>
</g>
<defs>
<clipPath id="clip0">
<rect width="15" height="15" fill="white"/>
</clipPath>
</defs>
</svg>
