<svg width="17" height="15" viewBox="0 0 17 15" fill="none" xmlns="http://www.w3.org/2000/svg">
<path d="M8.35938 0C5.1588 0 2.55493 2.36566 2.55493 5.27344C2.55493 6.25588 2.85447 7.21465 3.42137 8.04645L8.02897 14.7923C8.11723 14.9215 8.27273 15 8.43996 15C8.44125 15 8.44251 15 8.4438 15C8.61248 14.9988 8.7683 14.9179 8.85495 14.7864L13.3451 7.9752C13.8807 7.16098 14.1638 6.22673 14.1638 5.27344C14.1638 2.36566 11.5599 0 8.35938 0ZM12.5149 7.52396L8.43264 13.7164L4.24361 7.58338C3.77174 6.89104 3.51589 6.09229 3.51589 5.27344C3.51589 2.85029 5.69223 0.873047 8.35938 0.873047C11.0265 0.873047 13.1996 2.85029 13.1996 5.27344C13.1996 6.068 12.9607 6.84633 12.5149 7.52396Z" fill="#7F8C8D"/>
<path d="M8.35938 2.63672C6.75909 2.63672 5.45715 3.81955 5.45715 5.27344C5.45715 6.71804 6.7379 7.91016 8.35938 7.91016C10.0008 7.91016 11.2616 6.70216 11.2616 5.27344C11.2616 3.81955 9.95966 2.63672 8.35938 2.63672ZM8.35938 7.03711C7.28694 7.03711 6.41811 6.24513 6.41811 5.27344C6.41811 4.30418 7.29252 3.50977 8.35938 3.50977C9.42623 3.50977 10.2974 4.30418 10.2974 5.27344C10.2974 6.23095 9.4488 7.03711 8.35938 7.03711Z" fill="#7F8C8D"/>
</svg>
